<?xml version="1.0" encoding="UTF-8" standalone="no"?>
<!-- Created with Inkscape (http://www.inkscape.org/) -->
<svg
   xmlns:dc="http://purl.org/dc/elements/1.1/"
   xmlns:cc="http://web.resource.org/cc/"
   xmlns:rdf="http://www.w3.org/1999/02/22-rdf-syntax-ns#"
   xmlns:svg="http://www.w3.org/2000/svg"
   xmlns="http://www.w3.org/2000/svg"
   xmlns:sodipodi="http://sodipodi.sourceforge.net/DTD/sodipodi-0.dtd"
   xmlns:inkscape="http://www.inkscape.org/namespaces/inkscape"
   width="744.09448819"
   height="1052.3622047"
   id="svg2"
   sodipodi:version="0.32"
   inkscape:version="0.45.1"
   sodipodi:docbase="C:\Documents and Settings\gfp00033\Desktop"
   sodipodi:docname="drawing.svg"
   inkscape:output_extension="org.inkscape.output.svg.inkscape">
  <defs
     id="defs4" />
  <sodipodi:namedview
     id="base"
     pagecolor="#ffffff"
     bordercolor="#666666"
     borderopacity="1.0"
     gridtolerance="10000"
     guidetolerance="10"
     objecttolerance="10"
     inkscape:pageopacity="0.0"
     inkscape:pageshadow="2"
     inkscape:zoom="0.7"
     inkscape:cx="14.741303"
     inkscape:cy="753.13093"
     inkscape:document-units="px"
     inkscape:current-layer="layer1"
     inkscape:window-width="748"
     inkscape:window-height="579"
     inkscape:window-x="110"
     inkscape:window-y="115" />
  <metadata
     id="metadata7">
    <rdf:RDF>
      <cc:Work
         rdf:about="">
        <dc:format>image/svg+xml</dc:format>
        <dc:type
           rdf:resource="http://purl.org/dc/dcmitype/StillImage" />
      </cc:Work>
    </rdf:RDF>
  </metadata>
  <g
     inkscape:label="Layer 1"
     inkscape:groupmode="layer"
     id="layer1">
    <rect
       style="fill:#ff8080;fill-rule:evenodd;stroke:#000000;stroke-width:1.11775565px;stroke-linecap:butt;stroke-linejoin:miter;stroke-opacity:1"
       id="rect2360"
       width="584.42529"
       height="788.81683"
       x="629.13733"
       y="-1305.8951"
       transform="matrix(-0.6876431,0.7260489,-0.9934604,-0.114177,0,0)" />
    <rect
       style="fill:#ffaaaa;fill-rule:evenodd;stroke:#000000;stroke-width:1.07974553px;stroke-linecap:butt;stroke-linejoin:miter;stroke-opacity:1"
       id="rect2358"
       width="408.94034"
       height="488.72699"
       x="352.33926"
       y="148.23055"
       transform="matrix(0,1,1,0,0,0)" />
    <path
       sodipodi:type="spiral"
       style="fill:#808000;fill-rule:evenodd;stroke:#000000;stroke-width:0.00627792;stroke-linecap:butt;stroke-linejoin:miter;stroke-miterlimit:4;stroke-dasharray:none;stroke-opacity:1"
       id="path2362"
       sodipodi:cx="-445.71429"
       sodipodi:cy="206.6479"
       sodipodi:expansion="5"
       sodipodi:revolution="9.0154572"
       sodipodi:radius="5.6432371"
       sodipodi:argument="-18.965912"
       sodipodi:t0="0.48398072"
       d="M -445.79836,206.77196 C -445.8876,206.73262 -445.91672,206.622 -445.8782,206.53683 C -445.82564,206.42063 -445.68088,206.38305 -445.56968,206.43451 C -445.42036,206.5036 -445.37248,206.69048 -445.44011,206.83371 C -445.52964,207.0233 -445.76794,207.08364 -445.95018,206.99599 C -446.1883,206.88148 -446.26356,206.581 -446.15144,206.35167 C -446.00666,206.05557 -445.63162,205.96258 -445.34595,206.10435 C -444.98108,206.28543 -444.86717,206.74919 -445.04455,207.10176 C -445.26886,207.54762 -445.83741,207.68606 -446.26886,207.46626 C -446.80948,207.19085 -446.9765,206.49935 -446.70655,205.97549 C -446.37116,205.32464 -445.53627,205.12452 -444.90481,205.45338 C -444.12644,205.85875 -443.88816,206.85992 -444.28577,207.61596 C -444.77232,208.54108 -445.9653,208.82314 -446.86484,208.34573 C -447.95808,207.76553 -448.2901,206.35237 -447.72059,205.28831 C -447.03286,204.00338 -445.36813,203.61454 -444.11633,204.28984 C -442.61371,205.10045 -442.16054,207.05143 -442.95678,208.51656 C -443.90721,210.26542 -446.18254,210.79117 -447.88915,209.85727 C -449.91552,208.74839 -450.52285,206.10688 -449.43288,204.12796 C -448.14512,201.78992 -445.09172,201.09119 -442.80679,202.35741 C -441.27348,203.20711 -440.25898,204.80398 -440.0721,206.53936"
       transform="matrix(89.354704,0,0,30.438189,39929.006,-5896.3597)" />
    <path
       sodipodi:type="spiral"
       style="fill:none;fill-rule:evenodd;stroke:#000000;stroke-width:1px;stroke-linecap:butt;stroke-linejoin:miter;stroke-opacity:1"
       id="path2364"
       sodipodi:cx="-220"
       sodipodi:cy="6.6478968"
       sodipodi:expansion="2.1900001"
       sodipodi:revolution="40"
       sodipodi:radius="242.65538"
       sodipodi:argument="-251.11385"
       sodipodi:t0="0.44"
       d="M -246.77094,-23.332102 C -230.44035,-38.506423 -204.17907,-37.222061 -189.0795,-20.962876 C -173.43778,-4.1199113 -174.765,22.958921 -191.53528,38.524714 C -208.89923,54.641536 -236.80925,53.270695 -252.84898,35.980719 C -269.44864,18.087157 -268.03342,-10.667739 -250.21511,-27.189132 C -231.78328,-44.279396 -202.1698,-42.819018 -185.15899,-24.46373 C -167.57035,-5.484948 -169.07665,25.000858 -187.9776,42.50886 C -207.51203,60.603663 -238.88394,59.050673 -256.89693,39.595375 C -275.50571,19.496571 -273.90526,-12.775271 -253.88689,-31.301045 C -233.21497,-50.431639 -200.02935,-48.782946 -180.98295,-28.192764 C -161.3227,-6.9389638 -163.02041,27.174313 -184.19116,46.749177 C -206.03563,66.946966 -241.09048,65.199462 -261.20168,43.439349 C -281.94489,20.995408 -280.14681,-15.01497 -257.78854,-35.670391 C -234.73629,-56.966925 -197.75641,-55.117488 -176.54886,-32.152229 C -154.69108,-8.4828374 -156.59266,29.480572 -180.17375,51.248163 C -204.46916,73.67514 -243.43014,71.720632 -265.76571,47.514846 C -288.76984,22.584529 -286.76162,-17.388096 -261.92225,-40.299616 C -236.34812,-63.888874 -195.34974,-61.826143 -171.8543,-36.344288 C -147.67191,-10.117413 -149.78995,31.920866 -175.92321,56.008216 C -202.81178,80.791735 -245.90413,78.617611 -270.5914,51.823988 C -295.98408,24.264761 -293.75307,-19.895856 -266.29012,-45.191073 C -238.05125,-71.20097 -192.80813,-68.912272 -166.89693,-40.771022 C -140.26175,-11.843501 -142.60894,34.496383 -171.43749,61.031642 C -201.06269,88.300168 -248.51363,85.8937 -275.68102,56.368815 C -303.59099,26.036901 -301.12444,-22.539416 -270.89418,-50.347025 C -239.84649,-78.906565 -190.13045,-76.379116 -161.6745,-45.434435 C -132.45727,-13.661883 -135.04642,37.208268 -166.71461,66.320667 C -199.22111,96.203734 -251.25978,93.552081 -281.03678,61.151297 C -311.59384,27.901715 -308.87888,-25.3199 -275.73638,-55.76966 C -241.73459,-87.008897 -187.31556,-84.229802 -156.18487,-50.336462 C -124.25526,-15.573315 -127.0993,40.057623 -161.75263,71.877439 C -197.28631,104.50561 -254.14367,101.59583 -286.66082,66.173336 C -319.99579,29.859947 -317.01943,-28.238394 -280.8186,-61.461088 C -243.71629,-95.511092 -184.3624,-92.46735 -150.42592,-55.478972 C -115.65263,-17.578525 -118.76457,43.045518 -156.54971,77.704034 C -195.25754,113.20888 -257.16636,110.02791 -292.55518,71.436769 C -328.79987,31.912312 -325.54905,-31.295948 -286.14266,-67.423352 C -245.7923,-104.41618 -181.26992,-101.09469 -144.39563,-60.863775 C -106.64635,-19.67822 -110.03935,46.172985 -151.10406,83.802462 C -193.13412,122.31652 -260.32888,118.85121 -298.72188,76.94338 C -338.00906,34.059507 -334.47059,-34.49358 -291.71034,-73.658432 C -247.96331,-113.72709 -178.03711,-110.11464 -138.09205,-66.492625 C -97.23354,-21.873083 -100.9208,49.441028 -145.41393,90.174674 C -190.91536,131.83142 -263.63222,128.06851 -305.16283,82.694895 C -347.62621,36.302205 -343.78682,-37.832276 -297.52334,-80.168248 C -250.22998,-123.44667 -174.663,-119.52997 -131.51325,-72.367224 C -87.411359,-24.163778 -91.406214,52.850618 -139.47764,96.82256 C -188.6006,141.75637 -267.07735,137.68252 -311.87993,88.692992 C -357.6541,38.641059 -353.50043,-41.312996 -303.58334,-86.954664 C -252.59298,-133.57768 -171.14663,-129.34333 -124.6574,-78.489225 C -77.177067,-26.550951 -81.492931,56.402701 -133.29353,103.74796 C -186.18921,152.09411 -270.6652,147.69589 -318.87498,94.939299 C -368.09546,41.076706 -363.61403,-44.936671 -309.89195,-94.019493 C -255.05292,-144.12281 -167.48707,-139.55733 -117.52269,-84.860235 C -66.527997,-29.035227 -71.178377,60.098195 -126.86002,110.95266 C -183.68056,162.84728 -274.39668,158.11115 -326.14978,101.4354 C -378.95289,43.609764 -374.13016,-48.704208 -316.45074,-101.3645 C -257.61042,-155.08467 -163.68343,-150.17449 -110.10737,-91.481818 C -55.461552,-31.617217 -60.460041,63.937995 -120.17556,118.4384 C -181.07405,174.01847 -278.2727,168.93082 -333.70605,108.18285 C -390.22898,46.240834 -385.05131,-52.616489 -323.26126,-108.9914 C -260.26609,-166.46581 -159.73483,-161.19727 -102.40974,-98.355498 C -43.975204,-34.297515 -49.335481,67.922972 -113.23862,126.20687 C -178.36909,185.61018 -282.2941,180.15731 -341.54547,115.18313 C -401.92621,48.970504 -396.37988,-56.674375 -330.32499,-116.90186 C -263.0205,-178.26871 -155.64041,-172.62806 -94.428124,-105.48276 C -32.066486,-37.0767 -37.802312,72.053976 -106.04773,134.25974 C -175.56509,197.62487 -286.46174,191.793 -349.66968,122.43773 C -414.04702,51.799346 -408.11823,-60.878705 -337.64339,-125.09753 C -265.87422,-190.49579 -151.39934,-184.46922 -86.160908,-112.86505 C -19.732992,-39.955338 -25.85821,76.331836 -98.601461,142.5986 C -172.6615,210.06493 -290.77645,203.84019 -358.0803,129.94807 C -426.59378,54.727918 -420.26865,-65.230298 -345.21789,-133.57999 C -268.82781,-203.14941 -147.0108,-196.72301 -77.606505,-120.50379 C -6.9723727,-42.93398 -13.500904,80.757362 -90.898393,151.22505 C -169.65777,222.93269 -295.23901,216.30114 -366.77888,137.71556 C -439.56883,57.756765 -432.83339,-69.729954 -353.04987,-142.3508 C -271.88181,-216.23188 -142.47401,-209.39168 -68.763368,-128.40036 C 6.217667,-46.013166 -0.72817687,85.331345 -82.937156,160.14061 C -166.55337,236.23043 -299.85023,229.17807 -375.76695,145.74155 C -452.97442,60.886421 -445.81465,-74.378457 -361.1407,-151.41148 C -275.03675,-229.74546 -137.78817,-222.4774 -59.629982,-136.55611 C 19.839372,-49.193422 12.462142,90.054558 -74.716406,169.34679 C -163.34776,249.9604 -304.61087,242.47312 -385.04602,154.02738 C -466.81279,64.117406 -459.21456,-79.17657 -369.4917,-160.76353 C -278.29315,-243.69236 -132.95254,-235.98231 -50.204869,-144.97236 C 33.894937,-52.475264 26.072173,94.927758 -66.234829,178.84506 C -160.04045,264.12477 -309.52168,256.1884 -394.61754,162.57437 C -481.08609,67.450231 -473.03523,-84.125042 -378.10417,-170.40839 C -281.65151,-258.07473 -127.96636,-249.90849 -40.486578,-153.6504 C 11.111292,-96.874859 32.742628,-17.006443 17.142549,58.077898"
       transform="translate(800,248.57143)" />
    <flowRoot
       xml:space="preserve"
       id="flowRoot3353"
       transform="translate(820,-165.71429)"><flowRegion
         id="flowRegion3355"><rect
           id="rect3357"
           width="482.85715"
           height="440"
           x="-797.14288"
           y="232.36218" /></flowRegion><flowPara
         id="flowPara3359">sadfasdfsadf sa df sadf sa df sad f sadf sa df sad fsa df sad fsa df sad fas df asdf as df asd f sadf sad f sadf sa df sadf sad f sadf sa df sadf sa dfsadklfjhsaldjkfh sadjklfhsa dljkfhsad flkjhsadflk sajdhfklsajd hfklsajdhf salkdjf h</flowPara></flowRoot>  </g>
</svg>
